<svg width="23" height="23" viewBox="0 0 23 23" fill="none" xmlns="http://www.w3.org/2000/svg">
<rect width="23" height="23" fill="#F5F5F5"/>
<g clip-path="url(#clip0_0_1)">
<rect width="1440" height="1024" transform="translate(-28 -155)" fill="white"/>
<g filter="url(#filter0_d_0_1)">
<rect x="-33" y="-155" width="289" height="1024" fill="#0692DE"/>
</g>
<path d="M7.21951 2.12494e-10H2.40195C2.08652 2.12494e-10 1.77418 0.0621281 1.48276 0.182837C1.19134 0.303546 0.926555 0.480473 0.703514 0.703514C0.480473 0.926555 0.303546 1.19134 0.182837 1.48276C0.0621281 1.77418 3.10632e-10 2.08652 3.10632e-10 2.40195V7.21951C-8.46067e-06 7.8577 0.252655 8.46993 0.702754 8.92236C1.15285 9.37478 1.76377 9.6306 2.40195 9.63389H7.21951C7.85985 9.63389 8.47395 9.37952 8.92674 8.92674C9.37952 8.47395 9.63389 7.85985 9.63389 7.21951V2.40195C9.6306 1.76377 9.37478 1.15285 8.92236 0.702754C8.46993 0.252655 7.8577 -8.46077e-06 7.21951 2.12494e-10ZM20.5981 2.12494e-10H15.7805C15.1423 -8.46077e-06 14.5301 0.252655 14.0776 0.702754C13.6252 1.15285 13.3694 1.76377 13.3661 2.40195V7.21951C13.3664 7.85975 13.6209 8.47366 14.0736 8.92637C14.5263 9.37909 15.1403 9.63356 15.7805 9.63389H20.5981C21.2362 9.6306 21.8471 9.37478 22.2972 8.92236C22.7473 8.46993 23 7.8577 23 7.21951V2.40195C23 1.76491 22.7469 1.15397 22.2965 0.703514C21.846 0.253062 21.2351 2.12494e-10 20.5981 2.12494e-10ZM20.5981 13.3649H15.7805C15.1421 13.3649 14.5297 13.6177 14.0772 14.0681C13.6247 14.5184 13.3691 15.1297 13.3661 15.7681V20.5856C13.3661 21.226 13.6205 21.8401 14.0733 22.2928C14.526 22.7456 15.1402 23 15.7805 23H20.5981C21.2362 22.9967 21.8471 22.7409 22.2972 22.2885C22.7473 21.836 23 21.2238 23 20.5856V15.7681C23 15.131 22.7469 14.5201 22.2965 14.0696C21.846 13.6192 21.2351 13.3661 20.5981 13.3661M7.21951 13.3649H2.40195C1.76366 13.3685 1.15274 13.6246 0.702677 14.0772C0.252614 14.5298 -1.02288e-05 15.1422 3.10632e-10 15.7805V20.5981C3.10632e-10 21.2351 0.253062 21.846 0.703514 22.2965C1.15397 22.7469 1.76491 23 2.40195 23H7.21951C7.8577 23 8.46993 22.7473 8.92236 22.2972C9.37478 21.8471 9.6306 21.2362 9.63389 20.5981V15.7805C9.63389 15.1402 9.37952 14.526 8.92674 14.0733C8.47395 13.6205 7.85985 13.3661 7.21951 13.3661" fill="#F8F9FD"/>
</g>
<defs>
<filter id="filter0_d_0_1" x="-37" y="-155" width="297" height="1032" filterUnits="userSpaceOnUse" color-interpolation-filters="sRGB">
<feFlood flood-opacity="0" result="BackgroundImageFix"/>
<feColorMatrix in="SourceAlpha" type="matrix" values="0 0 0 0 0 0 0 0 0 0 0 0 0 0 0 0 0 0 127 0" result="hardAlpha"/>
<feOffset dy="4"/>
<feGaussianBlur stdDeviation="2"/>
<feComposite in2="hardAlpha" operator="out"/>
<feColorMatrix type="matrix" values="0 0 0 0 0 0 0 0 0 0 0 0 0 0 0 0 0 0 0.25 0"/>
<feBlend mode="normal" in2="BackgroundImageFix" result="effect1_dropShadow_0_1"/>
<feBlend mode="normal" in="SourceGraphic" in2="effect1_dropShadow_0_1" result="shape"/>
</filter>
<clipPath id="clip0_0_1">
<rect width="1440" height="1024" fill="white" transform="translate(-28 -155)"/>
</clipPath>
</defs>
</svg>
