<svg width="14" height="19" viewBox="0 0 14 19" fill="none" xmlns="http://www.w3.org/2000/svg">
<path d="M5.26633 7.51047L5.10656 6.42588C5.10655 6.42586 5.10655 6.42585 5.10655 6.42583C5.10497 6.41497 5.10553 6.40391 5.10822 6.39328C5.11091 6.38262 5.11567 6.37261 5.12223 6.3638L4.72117 6.06521L5.12223 6.36379C5.13548 6.346 5.15525 6.33419 5.17721 6.33098C5.18808 6.32938 5.19916 6.32995 5.20981 6.33264C5.22046 6.33533 5.23048 6.34009 5.2393 6.34665C5.25706 6.35988 5.26886 6.37962 5.2721 6.40153C5.2721 6.40156 5.27211 6.4016 5.27211 6.40163L5.45525 7.6556L5.51772 8.08334H5.95H7.39667H7.97572L7.89133 7.51047L7.73156 6.42588C7.73155 6.42586 7.73155 6.42585 7.73155 6.42583C7.72997 6.41498 7.73053 6.40392 7.73322 6.39328C7.73591 6.38262 7.74067 6.3726 7.74723 6.3638L7.34617 6.06521L7.74723 6.36379C7.76048 6.346 7.78025 6.33419 7.80221 6.33098C7.81308 6.32938 7.82416 6.32995 7.83481 6.33264C7.84546 6.33533 7.85548 6.34009 7.8643 6.34665C7.88204 6.35986 7.89382 6.37956 7.89708 6.40143C7.89709 6.4015 7.8971 6.40156 7.89711 6.40163L8.08025 7.6556L8.14272 8.08334H8.575H9.33333C9.35543 8.08334 9.37663 8.09212 9.39226 8.10775C9.40789 8.12337 9.41667 8.14457 9.41667 8.16667C9.41667 8.18877 9.40789 8.20997 9.39226 8.2256C9.37663 8.24123 9.35543 8.25001 9.33333 8.25001H8.7465H8.16782L8.25179 8.82256L8.50846 10.5726L8.57115 11H9.00317H9.91667C9.93877 11 9.95996 11.0088 9.97559 11.0244L10.3291 10.6709L9.97559 11.0244C9.99122 11.04 10 11.0612 10 11.0833C10 11.1054 9.99122 11.1266 9.97559 11.1423C9.95996 11.1579 9.93877 11.1667 9.91667 11.1667H9.1735H8.59459L8.67882 11.7394L8.75461 12.2548C8.75783 12.2768 8.75219 12.2991 8.73894 12.3169C8.72569 12.3347 8.70591 12.3465 8.68396 12.3497C8.662 12.3529 8.63967 12.3473 8.62187 12.334C8.60407 12.3208 8.59227 12.301 8.58906 12.279L8.58905 12.279L8.48872 11.5942L8.42608 11.1667H7.994H6.54733H5.96713L6.05282 11.7405L6.12961 12.2548C6.12963 12.2549 6.12965 12.255 6.12967 12.2552C6.13276 12.277 6.12712 12.2992 6.11394 12.3169C6.10069 12.3347 6.08091 12.3465 6.05896 12.3497C6.037 12.3529 6.01467 12.3473 5.99687 12.334C5.97908 12.3208 5.96727 12.301 5.96406 12.279L5.96405 12.279L5.86372 11.5942L5.80108 11.1667H5.369H4.66667C4.64456 11.1667 4.62337 11.1579 4.60774 11.1423C4.59211 11.1266 4.58333 11.1054 4.58333 11.0833C4.58333 11.0612 4.59211 11.04 4.60774 11.0244L4.27498 10.6917L4.60774 11.0244C4.62337 11.0088 4.64456 11 4.66667 11H5.19867H5.77735L5.69338 10.4274L5.43671 8.67745L5.37402 8.25001H4.942H4.08333C4.06123 8.25001 4.04004 8.24123 4.02441 8.2256C4.00878 8.20997 4 8.18877 4 8.16667C4 8.14457 4.00878 8.12337 4.02441 8.10775C4.04004 8.09212 4.06123 8.08334 4.08333 8.08334H4.77167H5.35072L5.26633 7.51047ZM6.11917 8.25001V8.75035L5.62679 8.82256L5.88346 10.5726L5.94615 11H6.37817H7.8225H8.40118L8.31721 10.4274L8.06054 8.67745L7.99785 8.25001H7.56583H6.55352H6.1215H6.11917ZM12.8452 1.15482L12.4916 1.50838L12.8452 1.15482C12.5326 0.842262 12.1087 0.666667 11.6667 0.666667H2.33333C1.89131 0.666667 1.46738 0.842262 1.15482 1.15482C0.842262 1.46738 0.666667 1.89131 0.666667 2.33333V16.3333C0.666667 16.7754 0.842261 17.1993 1.15482 17.5118C1.46738 17.8244 1.89131 18 2.33333 18H11.6667C12.1087 18 12.5326 17.8244 12.8452 17.5118C13.1577 17.1993 13.3333 16.7754 13.3333 16.3333V2.33333C13.3333 1.89131 13.1577 1.46738 12.8452 1.15482ZM11.6667 0.5C12.1529 0.5 12.6192 0.693154 12.963 1.03697C13.3068 1.38079 13.5 1.8471 13.5 2.33333V16.3333C13.5 16.8196 13.3068 17.2859 12.963 17.6297C12.6192 17.9735 12.1529 18.1667 11.6667 18.1667H2.33333C1.8471 18.1667 1.38079 17.9735 1.03697 17.6297C0.693154 17.2859 0.5 16.8196 0.5 16.3333V2.33333C0.5 1.8471 0.693155 1.38079 1.03697 1.03697C1.38079 0.693154 1.8471 0.5 2.33333 0.5H11.6667Z" fill="#949599" stroke="#949599"/>
</svg>
