<svg width="16" height="17" viewBox="0 0 16 17" fill="none" xmlns="http://www.w3.org/2000/svg">
<path d="M14.9117 14.0157L14.9119 14.0162C15.239 14.7883 15.4312 15.6004 15.4856 16.4361H14.8671C14.7485 14.7865 14.0487 13.25 12.8684 12.0698C11.5683 10.7696 9.83901 10.0531 8 10.0531C6.16099 10.0531 4.43171 10.7696 3.13158 12.0698C1.95131 13.25 1.25153 14.7865 1.13292 16.4361H0.514037C0.567844 15.6045 0.761611 14.7872 1.08793 14.0187L1.08818 14.0182C1.46515 13.1274 2.01107 12.318 2.69577 11.6347L2.69666 11.6338C3.38508 10.9434 4.18619 10.4034 5.07948 10.0266L5.08256 10.0253C5.08549 10.0241 5.08891 10.0228 5.09247 10.0213C5.10274 10.0172 5.11733 10.0109 5.13426 10.0025L5.87174 9.63373L5.20385 9.15024C4.00261 8.28064 3.22344 6.86896 3.22344 5.27656C3.22344 2.63783 5.36127 0.5 8 0.5C10.6387 0.5 12.7766 2.63783 12.7766 5.27656C12.7766 6.86905 11.9973 8.28048 10.7966 9.14781L10.1274 9.63117L10.8657 10.0003C10.8827 10.0088 10.8973 10.015 10.9075 10.0192C10.9111 10.0207 10.9146 10.022 10.9175 10.0232L10.92 10.0242C11.8108 10.4012 12.6202 10.9471 13.3035 11.6318L13.3045 11.6329C13.9897 12.3154 14.5355 13.1247 14.9117 14.0157ZM14.8828 16.7587L14.8828 16.7572L14.8828 16.7587ZM0.499905 16.7741L0.49996 16.7713L0.499905 16.7741ZM5.05923 8.21733C5.84438 9.00248 6.89066 9.43611 8 9.43611C9.10934 9.43611 10.1556 9.00248 10.9408 8.21733C11.7259 7.43218 12.1595 6.3859 12.1595 5.27656C12.1595 4.16722 11.7259 3.12094 10.9408 2.33579C10.1556 1.55064 9.10934 1.11701 8 1.11701C6.89066 1.11701 5.84438 1.55064 5.05923 2.33579C4.27408 3.12094 3.84045 4.16722 3.84045 5.27656C3.84045 6.3859 4.27408 7.43218 5.05923 8.21733Z" fill="#949599" stroke="#949599"/>
</svg>
