<svg width="22" height="22" viewBox="0 0 22 22" fill="none" xmlns="http://www.w3.org/2000/svg">
<circle cx="11" cy="11" r="10.5" fill="white" stroke="#949599"/>
<g clip-path="url(#clip0_116_3048)">
<path d="M4.6023 12.4768C4.61175 12.4777 4.62121 12.4781 4.63067 12.4781C4.78751 12.4781 4.92414 12.3649 4.95153 12.2074C4.97044 12.0988 5.44326 9.54367 7.89114 9.54367H12.4563V10.848C12.4563 10.9771 12.5322 11.0939 12.6506 11.1464C12.7686 11.1985 12.9062 11.1763 13.0018 11.0893L16.5887 7.82849C16.6565 7.76653 16.6953 7.67914 16.6953 7.58719C16.6953 7.49523 16.6565 7.40784 16.5887 7.34589L13.0018 4.08509C12.9062 3.99803 12.7683 3.97553 12.6506 4.02803C12.5322 4.08053 12.4563 4.19726 12.4563 4.32639V5.95679H7.89114C5.94705 5.95679 4.30426 7.45023 4.30426 9.21759V12.1523C4.30426 12.3215 4.43371 12.4624 4.6023 12.4768ZM4.95642 9.21759C4.95642 7.80371 6.30052 6.60895 7.89114 6.60895H12.7823C12.9627 6.60895 13.1084 6.46286 13.1084 6.28287V5.06366L15.8847 7.58719L13.1084 10.1107V9.21759C13.1084 9.03759 12.9627 8.89151 12.7823 8.89151H7.89114C6.37063 8.89151 5.47293 9.7054 4.95642 10.5131V9.21759Z" fill="#949599"/>
<path d="M16.3973 10.5239C16.2293 10.5079 16.077 10.626 16.048 10.7932C16.0288 10.9018 15.5563 13.457 13.1084 13.457H8.86938V12.1527C8.86938 12.0262 8.79601 11.911 8.68156 11.8572C8.56678 11.8038 8.43178 11.8211 8.33461 11.9022L4.42165 15.163C4.3473 15.225 4.30426 15.3166 4.30426 15.4135C4.30426 15.5103 4.3473 15.6019 4.42165 15.6639L8.33461 18.9247C8.39428 18.9746 8.46863 19.0003 8.5433 19.0003C8.59025 19.0003 8.63754 18.9902 8.68156 18.9697C8.79601 18.9159 8.86938 18.8008 8.86938 18.6743V17.0439H13.1084C15.0528 17.0439 16.6953 15.5504 16.6953 13.7831V10.8484C16.6953 10.6791 16.5658 10.5383 16.3973 10.5239ZM16.0431 13.7831C16.0431 15.197 14.6994 16.3917 13.1084 16.3917H8.5433C8.3633 16.3917 8.21722 16.5378 8.21722 16.7178V17.9781L5.13968 15.4135L8.21722 12.8489V13.7831C8.21722 13.9631 8.3633 14.1092 8.5433 14.1092H13.1084C14.6289 14.1092 15.5266 13.2953 16.0431 12.4876V13.7831Z" fill="#949599"/>
</g>
<defs>
<clipPath id="clip0_116_3048">
<rect width="15" height="15" fill="white" transform="translate(3 4)"/>
</clipPath>
</defs>
</svg>
