<svg width="16" height="20" viewBox="0 0 16 20" fill="none" xmlns="http://www.w3.org/2000/svg">
<path d="M8.00113 2.16086e-09C8.83603 -3.05239e-05 9.63847 0.323367 10.24 0.90231C10.8416 1.48125 11.1955 2.27072 11.2274 3.105L11.2297 3.22853H15.3004C15.4799 3.22911 15.6524 3.29846 15.7824 3.42231C15.9123 3.54616 15.9899 3.7151 15.9991 3.89439C16.0083 4.07367 15.9484 4.24967 15.8319 4.38618C15.7153 4.52269 15.5508 4.60934 15.3723 4.6283L15.3004 4.63224H14.6878L13.7316 17.3049C13.6863 17.905 13.416 18.4658 12.9747 18.875C12.5334 19.2842 11.9539 19.5115 11.3521 19.5115H4.6502C4.04841 19.5115 3.46884 19.2842 3.02758 18.875C2.58631 18.4658 2.31595 17.905 2.27064 17.3049L1.31387 4.63224H0.701854C0.528098 4.63231 0.36049 4.56794 0.231463 4.45156C0.102435 4.33519 0.0211612 4.17509 0.00336865 4.00225L0 3.93038C0 3.5671 0.27625 3.26783 0.629984 3.23246L0.701854 3.22853H4.77261C4.77261 2.37227 5.11275 1.55108 5.71822 0.945614C6.32369 0.340148 7.14488 2.16086e-09 8.00113 2.16086e-09ZM13.2802 4.63224H2.72207L3.67098 17.1993C3.68966 17.4463 3.80091 17.6771 3.98248 17.8456C4.16405 18.014 4.40253 18.1077 4.6502 18.1078H11.3521C11.5998 18.1078 11.8385 18.0142 12.0201 17.8458C12.2018 17.6773 12.3132 17.4464 12.3319 17.1993L13.2808 4.63224H13.2802ZM9.82595 7.58002C10.1892 7.58002 10.4885 7.85627 10.5244 8.21L10.5278 8.28187V14.4582C10.5286 14.6387 10.4599 14.8125 10.3359 14.9437C10.2119 15.0748 10.0422 15.1531 9.86194 15.1624C9.68169 15.1716 9.50482 15.1111 9.36804 14.9933C9.23127 14.8756 9.14511 14.7097 9.12747 14.5301L9.1241 14.4582V8.28187C9.1241 7.89445 9.43853 7.58002 9.82595 7.58002ZM6.17631 7.58002C6.53959 7.58002 6.83886 7.85627 6.8748 8.21L6.87817 8.28187V14.4582C6.87901 14.6387 6.81029 14.8125 6.68629 14.9437C6.56229 15.0748 6.39254 15.1531 6.2123 15.1624C6.03205 15.1716 5.85518 15.1111 5.7184 14.9933C5.58163 14.8756 5.49547 14.7097 5.47783 14.5301L5.47446 14.4582V8.28187C5.47446 7.89445 5.78889 7.58002 6.17631 7.58002ZM8.00113 1.40371C7.53503 1.40368 7.08657 1.58201 6.74777 1.90212C6.40897 2.22223 6.20551 2.65985 6.17912 3.12521L6.17631 3.22853H9.82595C9.82595 2.74455 9.6337 2.28041 9.29148 1.93819C8.94926 1.59596 8.48511 1.40371 8.00113 1.40371Z" fill="#109CF1"/>
</svg>
