<svg width="24" height="25" viewBox="0 0 24 25" fill="none" xmlns="http://www.w3.org/2000/svg">
<path d="M4.75 19.2383C4.55109 19.2383 4.36032 19.159 4.21967 19.018C4.07902 18.8769 4 18.6856 4 18.4861V4.94653C4 4.74704 4.07902 4.55571 4.21967 4.41465C4.36032 4.27359 4.55109 4.19434 4.75 4.19434H15.25C15.4489 4.19434 15.6397 4.27359 15.7803 4.41465C15.921 4.55571 16 4.74704 16 4.94653V18.4861C16 18.6856 15.921 18.8769 15.7803 19.018C15.6397 19.159 15.4489 19.2383 15.25 19.2383H4.75ZM12.25 14.7251L16 11.7163L12.25 8.70752V10.9641H7.75V12.4685H12.25V14.7251Z" fill="white"/>
</svg>
