<svg width="17" height="24" viewBox="0 0 17 24" fill="none" xmlns="http://www.w3.org/2000/svg">
<path d="M7.37004 16.7132V16.2831L6.94482 16.2188C5.52379 16.0039 4.18879 15.3651 3.09964 14.375C2.01024 13.3848 1.21268 12.0846 0.805191 10.6279C0.397673 9.17106 0.398283 7.62167 0.806944 6.16519C1.21558 4.7088 2.01415 3.40938 3.10432 2.42008C4.19424 1.43099 5.52973 0.793337 6.95093 0.579613C8.37199 0.365908 9.8224 0.584484 11.1303 1.2108C12.4384 1.83724 13.5508 2.84626 14.3322 4.12096C15.1136 5.39569 15.5301 6.88104 15.5301 8.39998C15.5277 10.3054 14.8712 12.1431 13.6854 13.5779C12.5 15.0121 10.8661 15.9471 9.08464 16.2189L8.66005 16.2837V16.7132V18.4002V18.9002H9.16005H11.8317C11.995 18.9002 12.1567 18.968 12.2796 19.0969C12.4034 19.2265 12.4767 19.4072 12.4767 19.6002C12.4767 19.7932 12.4034 19.9738 12.2796 20.1035C12.1567 20.2324 11.995 20.3001 11.8317 20.3001H9.16005H8.66005V20.8001V22.8C8.66005 22.993 8.58667 23.1737 8.46295 23.3034C8.33998 23.4322 8.17835 23.5 8.01505 23.5C7.85174 23.5 7.69011 23.4322 7.56714 23.3034C7.44342 23.1737 7.37004 22.993 7.37004 22.8V20.8001V20.3001H6.87004H4.19836C4.03506 20.3001 3.87342 20.2324 3.75045 20.1035C3.62673 19.9738 3.55335 19.7932 3.55335 19.6002C3.55335 19.4072 3.62673 19.2265 3.75045 19.0969C3.87342 18.968 4.03506 18.9002 4.19836 18.9002H6.87004H7.37004V18.4002V16.7132ZM1.79001 8.40062L1.79001 8.40116C1.79187 10.1169 2.44284 11.7663 3.60699 12.9863C4.7719 14.2071 6.35645 14.8984 8.01445 14.9004H8.01505C9.2516 14.9004 10.4583 14.516 11.4825 13.7988C12.5064 13.0819 13.3009 12.0653 13.7693 10.8804C14.2376 9.69565 14.3598 8.3932 14.1213 7.13688C13.8828 5.88049 13.2937 4.72336 12.425 3.81297C11.5561 2.90233 10.4461 2.27933 9.23398 2.02666C8.02171 1.77395 6.76543 1.90389 5.62507 2.39891C4.48503 2.89379 3.51443 3.73015 2.83326 4.79852C2.15222 5.86668 1.79001 7.12016 1.79001 8.40062Z" fill="black" stroke="#949599"/>
</svg>
