<svg width="21" height="12" viewBox="0 0 21 12" fill="none" xmlns="http://www.w3.org/2000/svg">
<path d="M16.4999 4.5C16.2033 4.5 15.9133 4.58797 15.6666 4.7528C15.4199 4.91762 15.2277 5.15189 15.1141 5.42598C15.0006 5.70006 14.9709 6.00166 15.0288 6.29264C15.0866 6.58361 15.2295 6.85088 15.4393 7.06066C15.6491 7.27044 15.9163 7.4133 16.2073 7.47118C16.4983 7.52906 16.7999 7.49935 17.074 7.38582C17.3481 7.27229 17.5823 7.08003 17.7471 6.83336C17.912 6.58668 17.9999 6.29667 17.9999 6C17.9999 5.60218 17.8419 5.22064 17.5606 4.93934C17.2793 4.65804 16.8978 4.5 16.4999 4.5Z" fill="#949599"/>
<path d="M10.4999 9C9.9066 9 9.32658 8.82405 8.83323 8.49441C8.33988 8.16477 7.95536 7.69623 7.7283 7.14805C7.50124 6.59987 7.44183 5.99667 7.55758 5.41473C7.67334 4.83279 7.95906 4.29824 8.37862 3.87868C8.79818 3.45912 9.33273 3.1734 9.91467 3.05765C10.4966 2.94189 11.0998 3.0013 11.648 3.22836C12.1962 3.45543 12.6647 3.83994 12.9943 4.33329C13.324 4.82664 13.4999 5.40666 13.4999 6C13.4989 6.79535 13.1826 7.55783 12.6202 8.12023C12.0578 8.68262 11.2953 8.99901 10.4999 9ZM10.4999 4.5C10.2033 4.5 9.91326 4.58798 9.66659 4.7528C9.41991 4.91762 9.22765 5.15189 9.11412 5.42598C9.00059 5.70007 8.97088 6.00167 9.02876 6.29264C9.08664 6.58361 9.2295 6.85088 9.43928 7.06066C9.64906 7.27044 9.91633 7.4133 10.2073 7.47118C10.4983 7.52906 10.7999 7.49935 11.074 7.38582C11.3481 7.27229 11.5823 7.08003 11.7471 6.83336C11.912 6.58668 11.9999 6.29667 11.9999 6C11.9995 5.6023 11.8414 5.221 11.5602 4.93978C11.2789 4.65856 10.8976 4.5004 10.4999 4.5Z" fill="#949599"/>
<path d="M4.49994 4.5C4.20327 4.5 3.91326 4.58797 3.66658 4.7528C3.41991 4.91762 3.22765 5.15189 3.11412 5.42598C3.00059 5.70006 2.97088 6.00166 3.02876 6.29264C3.08664 6.58361 3.2295 6.85088 3.43928 7.06066C3.64906 7.27044 3.91633 7.4133 4.2073 7.47118C4.49828 7.52906 4.79988 7.49935 5.07396 7.38582C5.34805 7.27229 5.58232 7.08003 5.74714 6.83336C5.91197 6.58668 5.99994 6.29667 5.99994 6C5.99994 5.60218 5.8419 5.22064 5.5606 4.93934C5.2793 4.65804 4.89776 4.5 4.49994 4.5Z" fill="#949599"/>
<path d="M19.4999 12H1.49994C1.10242 11.999 0.721463 11.8407 0.440373 11.5596C0.159282 11.2785 0.000929058 10.8975 -6.10352e-05 10.5V1.5C0.000929058 1.10248 0.159282 0.721524 0.440373 0.440433C0.721463 0.159343 1.10242 0.000990093 1.49994 0H19.4999C19.8975 0.000990093 20.2784 0.159343 20.5595 0.440433C20.8406 0.721524 20.9989 1.10248 20.9999 1.5V10.5C20.9993 10.8976 20.8411 11.2788 20.5599 11.56C20.2788 11.8412 19.8976 11.9994 19.4999 12ZM19.4999 1.5H1.49994V10.5H19.4999V1.5Z" fill="#949599"/>
</svg>
