<svg width="20" height="20" viewBox="0 0 20 20" fill="none" xmlns="http://www.w3.org/2000/svg">
<rect x="0.728088" y="0.423828" width="18.8479" height="18.8479" rx="4.71199" fill="#E6FAFF"/>
<g clip-path="url(#clip0_95_1579)">
<path d="M7.79607 5.9209L6.61807 7.49156V12.9889C6.61807 13.1972 6.70081 13.3969 6.84809 13.5442C6.99537 13.6915 7.19512 13.7742 7.4034 13.7742H12.9007C13.109 13.7742 13.3088 13.6915 13.456 13.5442C13.6033 13.3969 13.6861 13.1972 13.6861 12.9889V7.49156L12.5081 5.9209H7.79607Z" stroke="#006980" stroke-width="1.178" stroke-linecap="round" stroke-linejoin="round"/>
<path d="M11.7227 9.0625C11.7227 9.47907 11.5573 9.87857 11.2627 10.1731C10.9682 10.4677 10.5687 10.6332 10.1521 10.6332C9.73552 10.6332 9.33602 10.4677 9.04146 10.1731C8.7469 9.87857 8.58142 9.47907 8.58142 9.0625" stroke="#006980" stroke-width="1.178" stroke-linecap="round" stroke-linejoin="round"/>
<path d="M6.61807 7.49219H13.6861" stroke="#006980" stroke-width="1.178" stroke-linecap="round" stroke-linejoin="round"/>
</g>
<defs>
<clipPath id="clip0_95_1579">
<rect width="9.42397" height="9.42397" fill="white" transform="translate(5.44007 5.13574)"/>
</clipPath>
</defs>
</svg>
