<svg width="40" height="40" viewBox="0 0 40 40" fill="none" xmlns="http://www.w3.org/2000/svg">
<path d="M20.0333 30C22.8111 30 25.1578 29.0223 27.0733 27.0667C28.9889 25.1112 29.9644 22.7489 30 19.98V10H20.0233C17.2511 10.0334 14.8878 11.0089 12.9333 12.9267C10.9778 14.8423 10 17.1889 10 19.9667C10 22.7445 10.9756 25.1112 12.9267 27.0667C14.8778 29.0223 17.2461 30 20.0317 30M18 26.3334L24.7783 20.2784L24.385 19.17L19.3783 18.715L22.645 14.26L22.0417 13.5834L15.295 19.6484L15.6567 20.7884L20.6633 21.2434L17.42 25.6884L18 26.3334ZM20.0333 31.6667C18.5622 31.6667 17.1767 31.4128 15.8767 30.905C14.5767 30.3973 13.4061 29.6995 12.365 28.8117L9.16667 32.0234L7.97833 30.8334L11.19 27.635C10.3011 26.5939 9.60278 25.4234 9.095 24.1234C8.58722 22.8234 8.33333 21.4384 8.33333 19.9684C8.33333 16.7206 9.47 13.9695 11.7433 11.715C14.0167 9.4606 16.7778 8.33337 20.0267 8.33337H31.6667V19.9717C31.6667 23.2217 30.5394 25.9828 28.285 28.255C26.0317 30.5295 23.2811 31.6667 20.0333 31.6667Z" fill="#F8F9FD"/>
</svg>
