<svg width="20" height="20" viewBox="0 0 20 20" fill="none" xmlns="http://www.w3.org/2000/svg">
<rect x="0.42395" y="0.423828" width="18.8479" height="18.8479" rx="4.71199" fill="#FEF8E6"/>
<g clip-path="url(#clip0_95_1647)">
<path d="M14.1673 13.3821V12.5968C14.167 12.2488 14.0512 11.9107 13.838 11.6356C13.6247 11.3606 13.3262 11.1642 12.9893 11.0771" stroke="#805F00" stroke-width="1.178" stroke-linecap="round" stroke-linejoin="round"/>
<path d="M11.8112 13.3814V12.5961C11.8112 12.1795 11.6457 11.78 11.3512 11.4854C11.0566 11.1909 10.6571 11.0254 10.2406 11.0254H7.09923C6.68266 11.0254 6.28316 11.1909 5.9886 11.4854C5.69404 11.78 5.52856 12.1795 5.52856 12.5961V13.3814" stroke="#805F00" stroke-width="1.178" stroke-linecap="round" stroke-linejoin="round"/>
<path d="M11.4185 6.36523C11.7564 6.45174 12.0559 6.64823 12.2697 6.92373C12.4836 7.19922 12.5996 7.53806 12.5996 7.88681C12.5996 8.23557 12.4836 8.5744 12.2697 8.8499C12.0559 9.1254 11.7564 9.32189 11.4185 9.40839" stroke="#805F00" stroke-width="1.178" stroke-linecap="round" stroke-linejoin="round"/>
<path d="M8.66994 9.4548C9.53739 9.4548 10.2406 8.75159 10.2406 7.88414C10.2406 7.01669 9.53739 6.31348 8.66994 6.31348C7.80248 6.31348 7.09927 7.01669 7.09927 7.88414C7.09927 8.75159 7.80248 9.4548 8.66994 9.4548Z" stroke="#805F00" stroke-width="1.178" stroke-linecap="round" stroke-linejoin="round"/>
</g>
<defs>
<clipPath id="clip0_95_1647">
<rect width="9.42397" height="9.42397" fill="white" transform="translate(5.13593 5.13574)"/>
</clipPath>
</defs>
</svg>
