<svg width="24" height="25" viewBox="0 0 24 25" fill="none" xmlns="http://www.w3.org/2000/svg">
<path d="M5.23665 12.9982H6.4045C5.28271 11.541 5.28281 9.21258 6.40453 7.75553H5.36888C7.35513 4.12975 12.654 4.13223 14.6392 7.75553H13.6034C14.7252 9.21268 14.7251 11.5411 13.6034 12.9982H14.7712C15.6283 12.9982 16.3255 12.2989 16.3255 11.4394V9.31436C16.3255 8.95416 16.2027 8.62238 15.9974 8.35811C14.0153 2.62386 5.99982 2.61393 4.01041 8.3582C3.80514 8.62245 3.68237 8.9542 3.68237 9.31433V11.4393C3.68237 12.2989 4.37962 12.9982 5.23665 12.9982Z" fill="white"/>
<path d="M16.9739 19.4767C16.3718 16.7012 13.8441 13.8481 10.0038 13.8477C6.31975 13.8477 3.67337 16.5371 3.02772 19.4685C2.86269 20.2466 3.45562 20.9786 4.24667 20.9783C6.73686 20.9783 13.3518 20.9783 15.761 20.9706C16.5461 20.9706 17.1328 20.2478 16.9739 19.4767Z" fill="white"/>
<path d="M11.0634 11.4748H13.2871C14.0533 9.29135 12.3221 6.86454 10.004 6.90679C8.09591 6.90676 6.54358 8.46364 6.54358 10.3773C6.55074 13.7053 10.7994 15.0938 12.7647 12.4674H11.0634C10.4078 12.4431 10.4078 11.499 11.0634 11.4748Z" fill="white"/>
</svg>
