<svg width="16" height="20" viewBox="0 0 16 20" fill="none" xmlns="http://www.w3.org/2000/svg">
<path d="M13.7539 12C14.3329 12.0002 14.8895 12.2235 15.308 12.6236C15.7265 13.0236 15.9747 13.5696 16.0009 14.148V14.25H8.00391V15.249L15.9789 15.25C15.9181 15.7809 15.7445 16.2926 15.4699 16.751L8.00391 16.749V17.749L14.6419 17.751C13.0819 19.257 10.8519 20.001 7.99991 20.001C4.85391 20.001 2.46791 19.096 0.901906 17.261C0.322515 16.5824 0.00411372 15.7193 0.00390647 14.827V14.249C0.00377511 13.9536 0.06185 13.661 0.174814 13.388C0.287778 13.1151 0.453417 12.867 0.662269 12.6581C0.871121 12.4491 1.11909 12.2834 1.39202 12.1703C1.66495 12.0572 1.95748 11.999 2.25291 11.999H13.7539V12ZM7.99991 2.50671e-06C8.77627 -0.000775607 9.5421 0.179608 10.2365 0.526808C10.9309 0.874008 11.5347 1.37845 11.9999 2H8.00291V2.999L12.5839 3C12.7879 3.468 12.9229 3.972 12.9759 4.5H8.00291V5.5L12.9759 5.502C12.9245 6.01943 12.7922 6.52559 12.5839 7.002L8.00291 7V8L11.9999 8.001C11.4884 8.68263 10.8112 9.22222 10.0325 9.56853C9.25388 9.91485 8.39962 10.0564 7.55088 9.97973C6.70214 9.90307 5.88707 9.61075 5.18307 9.13052C4.47906 8.65029 3.90949 7.9981 3.52841 7.23585C3.14733 6.4736 2.96741 5.6266 3.00571 4.77526C3.04401 3.92392 3.29928 3.09651 3.74727 2.37156C4.19526 1.64661 4.82111 1.0482 5.5654 0.633137C6.30968 0.218073 7.14771 0.000130377 7.99991 2.50671e-06Z" fill="#2A3447"/>
</svg>
