<svg width="32" height="32" viewBox="0 0 32 32" fill="none" xmlns="http://www.w3.org/2000/svg">
<path d="M29.3333 2.66675H2.66665C2.31302 2.66675 1.97389 2.80722 1.72384 3.05727C1.47379 3.30732 1.33331 3.64646 1.33331 4.00008V14.6667C1.33331 15.0204 1.47379 15.3595 1.72384 15.6096C1.97389 15.8596 2.31302 16.0001 2.66665 16.0001H6.66665V28.0001C6.66665 28.3537 6.80712 28.6928 7.05717 28.9429C7.30722 29.1929 7.64636 29.3334 7.99998 29.3334H24C24.3536 29.3334 24.6927 29.1929 24.9428 28.9429C25.1928 28.6928 25.3333 28.3537 25.3333 28.0001V16.0001H29.3333C29.6869 16.0001 30.0261 15.8596 30.2761 15.6096C30.5262 15.3595 30.6666 15.0204 30.6666 14.6667V4.00008C30.6666 3.64646 30.5262 3.30732 30.2761 3.05727C30.0261 2.80722 29.6869 2.66675 29.3333 2.66675ZM9.33331 26.6667V24.0001C10.0406 24.0001 10.7188 24.281 11.2189 24.7811C11.719 25.2812 12 25.9595 12 26.6667H9.33331ZM22.6666 26.6667H20C20 25.9595 20.2809 25.2812 20.781 24.7811C21.2811 24.281 21.9594 24.0001 22.6666 24.0001V26.6667ZM22.6666 21.3334C21.2522 21.3334 19.8956 21.8953 18.8954 22.8955C17.8952 23.8957 17.3333 25.2523 17.3333 26.6667H14.6666C14.6666 25.2523 14.1047 23.8957 13.1045 22.8955C12.1044 21.8953 10.7478 21.3334 9.33331 21.3334V10.6667H22.6666V21.3334ZM28 13.3334H25.3333V9.33342C25.3333 8.97979 25.1928 8.64065 24.9428 8.39061C24.6927 8.14056 24.3536 8.00008 24 8.00008H7.99998C7.64636 8.00008 7.30722 8.14056 7.05717 8.39061C6.80712 8.64065 6.66665 8.97979 6.66665 9.33342V13.3334H3.99998V5.33341H28V13.3334ZM16 20.0001C16.7911 20.0001 17.5645 19.7655 18.2223 19.326C18.8801 18.8864 19.3927 18.2617 19.6955 17.5308C19.9982 16.7999 20.0775 15.9956 19.9231 15.2197C19.7688 14.4438 19.3878 13.7311 18.8284 13.1717C18.269 12.6122 17.5563 12.2313 16.7803 12.0769C16.0044 11.9226 15.2002 12.0018 14.4692 12.3046C13.7383 12.6073 13.1136 13.12 12.6741 13.7778C12.2346 14.4356 12 15.209 12 16.0001C12 17.0609 12.4214 18.0784 13.1716 18.8285C13.9217 19.5787 14.9391 20.0001 16 20.0001ZM16 14.6667C16.2637 14.6667 16.5215 14.7449 16.7407 14.8915C16.96 15.038 17.1309 15.2462 17.2318 15.4898C17.3327 15.7335 17.3591 16.0016 17.3077 16.2602C17.2562 16.5188 17.1293 16.7564 16.9428 16.9429C16.7563 17.1294 16.5187 17.2563 16.2601 17.3078C16.0015 17.3592 15.7334 17.3328 15.4897 17.2319C15.2461 17.131 15.0379 16.9601 14.8914 16.7408C14.7448 16.5216 14.6666 16.2638 14.6666 16.0001C14.6666 15.6465 14.8071 15.3073 15.0572 15.0573C15.3072 14.8072 15.6464 14.6667 16 14.6667Z" fill="white"/>
</svg>
